solid OpenSCAD_Model
  facet normal 0.866026 0.5 0
    outer loop
      vertex 9.6188 0.660254 40
      vertex 5.3812 8 1
      vertex 5.3812 8 40
    endloop
  endfacet
  facet normal 0.866026 0.5 0
    outer loop
      vertex 5.3812 8 1
      vertex 9.6188 0.660254 40
      vertex 9.6188 0.660254 1
    endloop
  endfacet
  facet normal -0.866026 0.5 0
    outer loop
      vertex -10 0 0
      vertex -5.3812 8 40
      vertex -5.3812 8 0
    endloop
  endfacet
  facet normal -0.866026 0.5 0
    outer loop
      vertex -5.3812 8 40
      vertex -10 0 0
      vertex -10 0 40
    endloop
  endfacet
  facet normal 0 1 -0
    outer loop
      vertex 4.3812 8.66025 1
      vertex -4.7624 8.66025 40
      vertex 4.3812 8.66025 40
    endloop
  endfacet
  facet normal 0 1 0
    outer loop
      vertex -4.7624 8.66025 40
      vertex 4.3812 8.66025 1
      vertex -4.7624 8.66025 1
    endloop
  endfacet
  facet normal 0 0 1
    outer loop
      vertex 33 41.6603 40
      vertex 37 33 40
      vertex 38 33 40
    endloop
  endfacet
  facet normal 0 0 1
    outer loop
      vertex 33 41.6603 40
      vertex 32.5 40.7942 40
      vertex 37 33 40
    endloop
  endfacet
  facet normal -0 0 1
    outer loop
      vertex 23.6188 41.6603 40
      vertex 32.5 40.7942 40
      vertex 33 41.6603 40
    endloop
  endfacet
  facet normal 0 0 1
    outer loop
      vertex 32.5 40.7942 40
      vertex 23.6188 41.6603 40
      vertex 23.8812 40.7942 40
    endloop
  endfacet
  facet normal -0 0 1
    outer loop
      vertex 22.8094 41.3301 40
      vertex 23.8812 40.7942 40
      vertex 23.6188 41.6603 40
    endloop
  endfacet
  facet normal 0 0 1
    outer loop
      vertex 22.8094 41.3301 40
      vertex 19.3812 33 40
      vertex 23.8812 40.7942 40
    endloop
  endfacet
  facet normal 0 -0 1
    outer loop
      vertex 19.3812 33 40
      vertex 22.8094 41.3301 40
      vertex 18.3812 33.6603 40
    endloop
  endfacet
  facet normal -0 0 1
    outer loop
      vertex 37 33 40
      vertex 33.0925 24.5 40
      vertex 38 33 40
    endloop
  endfacet
  facet normal 0 -0 1
    outer loop
      vertex 33.0925 24.5 40
      vertex 37 33 40
      vertex 32.5 25.2058 40
    endloop
  endfacet
  facet normal 0 0 1
    outer loop
      vertex 33.0925 24.5 40
      vertex 37 16 40
      vertex 38 16 40
    endloop
  endfacet
  facet normal 0 0 1
    outer loop
      vertex 32.5 23.7942 40
      vertex 33.0925 24.5 40
      vertex 32.5 25.2058 40
    endloop
  endfacet
  facet normal 0 0 1
    outer loop
      vertex 33.0925 24.5 40
      vertex 32.5 23.7942 40
      vertex 37 16 40
    endloop
  endfacet
  facet normal -0 0 1
    outer loop
      vertex 23.8812 25.2058 40
      vertex 32.5 23.7942 40
      vertex 32.5 25.2058 40
    endloop
  endfacet
  facet normal 0 0 1
    outer loop
      vertex 23.8812 25.2058 40
      vertex 23.5 23.7942 40
      vertex 32.5 23.7942 40
    endloop
  endfacet
  facet normal 0 0 1
    outer loop
      vertex 23.8812 25.2058 40
      vertex 22.8094 24.6699 40
      vertex 23.5 23.7942 40
    endloop
  endfacet
  facet normal 0 0 1
    outer loop
      vertex 19.3812 33 40
      vertex 22.8094 24.6699 40
      vertex 23.8812 25.2058 40
    endloop
  endfacet
  facet normal 0 0 1
    outer loop
      vertex 18.3812 32.3397 40
      vertex 19.3812 33 40
      vertex 18.3812 33.6603 40
    endloop
  endfacet
  facet normal 0 0 1
    outer loop
      vertex 19.3812 33 40
      vertex 18.3812 32.3397 40
      vertex 22.8094 24.6699 40
    endloop
  endfacet
  facet normal -0 0 1
    outer loop
      vertex 9.6188 33.6603 40
      vertex 18.3812 32.3397 40
      vertex 18.3812 33.6603 40
    endloop
  endfacet
  facet normal 0 0 1
    outer loop
      vertex 9.6188 33.6603 40
      vertex 9.6188 32.3397 40
      vertex 18.3812 32.3397 40
    endloop
  endfacet
  facet normal 0 0 1
    outer loop
      vertex 9.6188 33.6603 40
      vertex 8.6188 33 40
      vertex 9.6188 32.3397 40
    endloop
  endfacet
  facet normal 0 0 1
    outer loop
      vertex 5.1906 41.3301 40
      vertex 8.6188 33 40
      vertex 9.6188 33.6603 40
    endloop
  endfacet
  facet normal 0 0 1
    outer loop
      vertex 4.1188 40.7942 40
      vertex 5.1906 41.3301 40
      vertex 4.3812 41.6603 40
    endloop
  endfacet
  facet normal 0 0 1
    outer loop
      vertex 5.1906 41.3301 40
      vertex 4.1188 40.7942 40
      vertex 8.6188 33 40
    endloop
  endfacet
  facet normal 0 0 1
    outer loop
      vertex 4.3812 41.6603 40
      vertex -4.5 40.7942 40
      vertex 4.1188 40.7942 40
    endloop
  endfacet
  facet normal -0 0 1
    outer loop
      vertex -5 41.6603 40
      vertex -4.5 40.7942 40
      vertex 4.3812 41.6603 40
    endloop
  endfacet
  facet normal 0 0 1
    outer loop
      vertex -5 41.6603 40
      vertex -9 33 40
      vertex -4.5 40.7942 40
    endloop
  endfacet
  facet normal 0 -0 1
    outer loop
      vertex -9 33 40
      vertex -5 41.6603 40
      vertex -10 33 40
    endloop
  endfacet
  facet normal -0 0 1
    outer loop
      vertex 37 16 40
      vertex 33.3812 8 40
      vertex 38 16 40
    endloop
  endfacet
  facet normal 0 -0 1
    outer loop
      vertex 33.3812 8 40
      vertex 37 16 40
      vertex 32.7624 8.66025 40
    endloop
  endfacet
  facet normal 0 0 1
    outer loop
      vertex 33.3812 8 40
      vertex 37 0 40
      vertex 38 0 40
    endloop
  endfacet
  facet normal 0 0 1
    outer loop
      vertex 32.7624 7.33975 40
      vertex 33.3812 8 40
      vertex 32.7624 8.66025 40
    endloop
  endfacet
  facet normal 0 0 1
    outer loop
      vertex 33.3812 8 40
      vertex 32.7624 7.33975 40
      vertex 37 0 40
    endloop
  endfacet
  facet normal -0 0 1
    outer loop
      vertex 23.6188 8.66025 40
      vertex 32.7624 7.33975 40
      vertex 32.7624 8.66025 40
    endloop
  endfacet
  facet normal 0 0 1
    outer loop
      vertex 23.6188 8.66025 40
      vertex 23.6188 7.33975 40
      vertex 32.7624 7.33975 40
    endloop
  endfacet
  facet normal 0 0 1
    outer loop
      vertex 23.6188 8.66025 40
      vertex 22.6188 8 40
      vertex 23.6188 7.33975 40
    endloop
  endfacet
  facet normal 0 0 1
    outer loop
      vertex 19.1906 16.3301 40
      vertex 22.6188 8 40
      vertex 23.6188 8.66025 40
    endloop
  endfacet
  facet normal 0 0 1
    outer loop
      vertex 18.1188 15.7942 40
      vertex 19.1906 16.3301 40
      vertex 18.5 17.2058 40
    endloop
  endfacet
  facet normal 0 0 1
    outer loop
      vertex 19.1906 16.3301 40
      vertex 18.1188 15.7942 40
      vertex 22.6188 8 40
    endloop
  endfacet
  facet normal 0 0 1
    outer loop
      vertex 18.5 17.2058 40
      vertex 9.8812 15.7942 40
      vertex 18.1188 15.7942 40
    endloop
  endfacet
  facet normal -0 0 1
    outer loop
      vertex 9.5 17.2058 40
      vertex 9.8812 15.7942 40
      vertex 18.5 17.2058 40
    endloop
  endfacet
  facet normal -0 0 1
    outer loop
      vertex 8.8094 16.3301 40
      vertex 9.8812 15.7942 40
      vertex 9.5 17.2058 40
    endloop
  endfacet
  facet normal 0 0 1
    outer loop
      vertex 8.8094 16.3301 40
      vertex 5.3812 8 40
      vertex 9.8812 15.7942 40
    endloop
  endfacet
  facet normal 0 -0 1
    outer loop
      vertex 5.3812 8 40
      vertex 8.8094 16.3301 40
      vertex 4.3812 8.66025 40
    endloop
  endfacet
  facet normal -0 0 1
    outer loop
      vertex 37 0 40
      vertex 33 -8.66025 40
      vertex 38 0 40
    endloop
  endfacet
  facet normal -0 0 1
    outer loop
      vertex 32.5 -7.79423 40
      vertex 33 -8.66025 40
      vertex 37 0 40
    endloop
  endfacet
  facet normal 0 0 1
    outer loop
      vertex 23.6188 -8.66025 40
      vertex 32.5 -7.79423 40
      vertex 23.8812 -7.79423 40
    endloop
  endfacet
  facet normal 0 0 1
    outer loop
      vertex 32.5 -7.79423 40
      vertex 23.6188 -8.66025 40
      vertex 33 -8.66025 40
    endloop
  endfacet
  facet normal 0 0 1
    outer loop
      vertex 23.8812 -7.79423 40
      vertex 22.8094 -8.33013 40
      vertex 23.6188 -8.66025 40
    endloop
  endfacet
  facet normal 0 0 1
    outer loop
      vertex 19.3812 0 40
      vertex 22.8094 -8.33013 40
      vertex 23.8812 -7.79423 40
    endloop
  endfacet
  facet normal 0 0 1
    outer loop
      vertex 18.3812 -0.660254 40
      vertex 19.3812 0 40
      vertex 18.3812 0.660254 40
    endloop
  endfacet
  facet normal 0 0 1
    outer loop
      vertex 19.3812 0 40
      vertex 18.3812 -0.660254 40
      vertex 22.8094 -8.33013 40
    endloop
  endfacet
  facet normal -0 0 1
    outer loop
      vertex 9.6188 0.660254 40
      vertex 18.3812 -0.660254 40
      vertex 18.3812 0.660254 40
    endloop
  endfacet
  facet normal 0 0 1
    outer loop
      vertex 9.6188 0.660254 40
      vertex 9.6188 -0.660254 40
      vertex 18.3812 -0.660254 40
    endloop
  endfacet
  facet normal 0 0 1
    outer loop
      vertex 9.6188 0.660254 40
      vertex 8.6188 -7.62939e-07 40
      vertex 9.6188 -0.660254 40
    endloop
  endfacet
  facet normal -0 0 1
    outer loop
      vertex 4.3812 7.33975 40
      vertex 9.6188 0.660254 40
      vertex 5.3812 8 40
    endloop
  endfacet
  facet normal 0 0 1
    outer loop
      vertex 4.3812 7.33975 40
      vertex 5.3812 8 40
      vertex 4.3812 8.66025 40
    endloop
  endfacet
  facet normal 0 0 1
    outer loop
      vertex 9.6188 0.660254 40
      vertex 4.3812 7.33975 40
      vertex 8.6188 -7.62939e-07 40
    endloop
  endfacet
  facet normal 0 0 1
    outer loop
      vertex 4.3812 8.66025 40
      vertex -4.76239 7.33975 40
      vertex 4.3812 7.33975 40
    endloop
  endfacet
  facet normal -0 0 1
    outer loop
      vertex -4.7624 8.66025 40
      vertex -4.76239 7.33975 40
      vertex 4.3812 8.66025 40
    endloop
  endfacet
  facet normal -0 0 1
    outer loop
      vertex -5.3812 8 40
      vertex -4.76239 7.33975 40
      vertex -4.7624 8.66025 40
    endloop
  endfacet
  facet normal 0 0 1
    outer loop
      vertex -5.3812 8 40
      vertex -9 0 40
      vertex -4.76239 7.33975 40
    endloop
  endfacet
  facet normal 0 -0 1
    outer loop
      vertex -9 0 40
      vertex -5.3812 8 40
      vertex -10 0 40
    endloop
  endfacet
  facet normal 0 0 1
    outer loop
      vertex -9 16 40
      vertex -5.3812 8 40
      vertex -4.7624 8.66025 40
    endloop
  endfacet
  facet normal 0 0 1
    outer loop
      vertex -5.3812 8 40
      vertex -9 16 40
      vertex -10 16 40
    endloop
  endfacet
  facet normal 0 0 1
    outer loop
      vertex -9 33 40
      vertex -5.09252 24.5 40
      vertex -4.5 25.2058 40
    endloop
  endfacet
  facet normal 0 0 1
    outer loop
      vertex -5.09252 24.5 40
      vertex -9 33 40
      vertex -10 33 40
    endloop
  endfacet
  facet normal -0 0 1
    outer loop
      vertex 4.5 23.7942 40
      vertex 9.5 17.2058 40
      vertex 5.1906 24.6699 40
    endloop
  endfacet
  facet normal 0 0 1
    outer loop
      vertex 9.5 17.2058 40
      vertex 4.5 23.7942 40
      vertex 8.8094 16.3301 40
    endloop
  endfacet
  facet normal 0 0 1
    outer loop
      vertex 8.6188 33 40
      vertex 5.1906 24.6699 40
      vertex 9.6188 32.3397 40
    endloop
  endfacet
  facet normal -0 0 1
    outer loop
      vertex 4.1188 25.2058 40
      vertex 5.1906 24.6699 40
      vertex 8.6188 33 40
    endloop
  endfacet
  facet normal 0 0 1
    outer loop
      vertex 5.1906 24.6699 40
      vertex 4.1188 25.2058 40
      vertex 4.5 23.7942 40
    endloop
  endfacet
  facet normal 0 0 1
    outer loop
      vertex 4.1188 25.2058 40
      vertex -4.5 23.7942 40
      vertex 4.5 23.7942 40
    endloop
  endfacet
  facet normal -0 0 1
    outer loop
      vertex -4.5 25.2058 40
      vertex -4.5 23.7942 40
      vertex 4.1188 25.2058 40
    endloop
  endfacet
  facet normal -0 0 1
    outer loop
      vertex -5.09252 24.5 40
      vertex -4.5 23.7942 40
      vertex -4.5 25.2058 40
    endloop
  endfacet
  facet normal 0 0 1
    outer loop
      vertex -5.09252 24.5 40
      vertex -9 16 40
      vertex -4.5 23.7942 40
    endloop
  endfacet
  facet normal 0 -0 1
    outer loop
      vertex -9 16 40
      vertex -5.09252 24.5 40
      vertex -10 16 40
    endloop
  endfacet
  facet normal 0 0 1
    outer loop
      vertex 8.6188 -7.62939e-07 40
      vertex 5.1906 -8.33013 40
      vertex 9.6188 -0.660254 40
    endloop
  endfacet
  facet normal -0 0 1
    outer loop
      vertex 4.1188 -7.79423 40
      vertex 5.1906 -8.33013 40
      vertex 8.6188 -7.62939e-07 40
    endloop
  endfacet
  facet normal 0 0 1
    outer loop
      vertex 5.1906 -8.33013 40
      vertex 4.1188 -7.79423 40
      vertex 4.3812 -8.66025 40
    endloop
  endfacet
  facet normal -0 0 1
    outer loop
      vertex -4.5 -7.79423 40
      vertex 4.3812 -8.66025 40
      vertex 4.1188 -7.79423 40
    endloop
  endfacet
  facet normal 0 0 1
    outer loop
      vertex -4.5 -7.79423 40
      vertex -5 -8.66025 40
      vertex 4.3812 -8.66025 40
    endloop
  endfacet
  facet normal 0 0 1
    outer loop
      vertex -9 0 40
      vertex -5 -8.66025 40
      vertex -4.5 -7.79423 40
    endloop
  endfacet
  facet normal 0 0 1
    outer loop
      vertex -5 -8.66025 40
      vertex -9 0 40
      vertex -10 0 40
    endloop
  endfacet
  facet normal -0 0 1
    outer loop
      vertex 18.5 48.7942 40
      vertex 23.6188 41.6603 40
      vertex 19 49.6603 40
    endloop
  endfacet
  facet normal 0 0 1
    outer loop
      vertex 23.6188 41.6603 40
      vertex 18.5 48.7942 40
      vertex 22.8094 41.3301 40
    endloop
  endfacet
  facet normal 0 0 1
    outer loop
      vertex 19 49.6603 40
      vertex 9.5 48.7942 40
      vertex 18.5 48.7942 40
    endloop
  endfacet
  facet normal -0 0 1
    outer loop
      vertex 9 49.6603 40
      vertex 9.5 48.7942 40
      vertex 19 49.6603 40
    endloop
  endfacet
  facet normal 0 0 1
    outer loop
      vertex 4.3812 41.6603 40
      vertex 9.5 48.7942 40
      vertex 9 49.6603 40
    endloop
  endfacet
  facet normal 0 0 1
    outer loop
      vertex 9.5 48.7942 40
      vertex 4.3812 41.6603 40
      vertex 5.1906 41.3301 40
    endloop
  endfacet
  facet normal 0 0 1
    outer loop
      vertex 18.5 17.2058 40
      vertex 23.5 23.7942 40
      vertex 22.8094 24.6699 40
    endloop
  endfacet
  facet normal 0 0 1
    outer loop
      vertex 23.5 23.7942 40
      vertex 18.5 17.2058 40
      vertex 19.1906 16.3301 40
    endloop
  endfacet
  facet normal 0 0 1
    outer loop
      vertex 18.5 -15.7942 40
      vertex 23.6188 -8.66025 40
      vertex 22.8094 -8.33013 40
    endloop
  endfacet
  facet normal 0 0 1
    outer loop
      vertex 23.6188 -8.66025 40
      vertex 18.5 -15.7942 40
      vertex 19 -16.6603 40
    endloop
  endfacet
  facet normal -0 0 1
    outer loop
      vertex 9.5 -15.7942 40
      vertex 19 -16.6603 40
      vertex 18.5 -15.7942 40
    endloop
  endfacet
  facet normal 0 0 1
    outer loop
      vertex 9.5 -15.7942 40
      vertex 9 -16.6603 40
      vertex 19 -16.6603 40
    endloop
  endfacet
  facet normal -0 0 1
    outer loop
      vertex 4.3812 -8.66025 40
      vertex 9.5 -15.7942 40
      vertex 5.1906 -8.33013 40
    endloop
  endfacet
  facet normal 0 0 1
    outer loop
      vertex 9.5 -15.7942 40
      vertex 4.3812 -8.66025 40
      vertex 9 -16.6603 40
    endloop
  endfacet
  facet normal 0 0 1
    outer loop
      vertex 18.3812 0.660254 40
      vertex 23.6188 7.33975 40
      vertex 22.6188 8 40
    endloop
  endfacet
  facet normal 0 0 1
    outer loop
      vertex 23.6188 7.33975 40
      vertex 18.3812 0.660254 40
      vertex 19.3812 0 40
    endloop
  endfacet
  facet normal 0.866026 -0.5 0
    outer loop
      vertex 5.1906 -8.33013 40
      vertex 9.6188 -0.660254 1
      vertex 9.6188 -0.660254 40
    endloop
  endfacet
  facet normal 0.866026 -0.5 0
    outer loop
      vertex 9.6188 -0.660254 1
      vertex 5.1906 -8.33013 40
      vertex 5.1906 -8.33013 1
    endloop
  endfacet
  facet normal 0 0 -1
    outer loop
      vertex 23.6188 -8.66025 0
      vertex 33.3812 8 0
      vertex 33 -8.66025 0
    endloop
  endfacet
  facet normal 0 0 -1
    outer loop
      vertex 33 -8.66025 0
      vertex 33.3812 8 0
      vertex 38 0 0
    endloop
  endfacet
  facet normal -0 0 -1
    outer loop
      vertex 38 16 0
      vertex 33.3812 8 0
      vertex 33.0925 24.5 0
    endloop
  endfacet
  facet normal 0 0 -1
    outer loop
      vertex 23.6188 41.6603 0
      vertex 38 33 0
      vertex 33.0925 24.5 0
    endloop
  endfacet
  facet normal 0 0 -1
    outer loop
      vertex -5.3812 8 0
      vertex 33.3812 8 0
      vertex 23.6188 -8.66025 0
    endloop
  endfacet
  facet normal 0 0 -1
    outer loop
      vertex 33.3812 8 0
      vertex -5.3812 8 0
      vertex 33.0925 24.5 0
    endloop
  endfacet
  facet normal 0 0 -1
    outer loop
      vertex 38 33 0
      vertex 23.6188 41.6603 0
      vertex 33 41.6603 0
    endloop
  endfacet
  facet normal 0 0 -1
    outer loop
      vertex 4.3812 -8.66025 0
      vertex 23.6188 -8.66025 0
      vertex 19 -16.6603 0
    endloop
  endfacet
  facet normal 0 0 -1
    outer loop
      vertex -5.3812 8 0
      vertex 23.6188 -8.66025 0
      vertex 4.3812 -8.66025 0
    endloop
  endfacet
  facet normal 0 -0 -1
    outer loop
      vertex 4.3812 41.6603 0
      vertex 23.6188 41.6603 0
      vertex -5.09252 24.5 0
    endloop
  endfacet
  facet normal 0 0 -1
    outer loop
      vertex 4.3812 -8.66025 0
      vertex 19 -16.6603 0
      vertex 9 -16.6603 0
    endloop
  endfacet
  facet normal -0 0 -1
    outer loop
      vertex 33.0925 24.5 0
      vertex -5.3812 8 0
      vertex -5.09252 24.5 0
    endloop
  endfacet
  facet normal -0 0 -1
    outer loop
      vertex 19 49.6603 0
      vertex 4.3812 41.6603 0
      vertex 9 49.6603 0
    endloop
  endfacet
  facet normal 0 0 -1
    outer loop
      vertex 23.6188 41.6603 0
      vertex 4.3812 41.6603 0
      vertex 19 49.6603 0
    endloop
  endfacet
  facet normal 0 0 -1
    outer loop
      vertex -5.3812 8 0
      vertex 4.3812 -8.66025 0
      vertex -5 -8.66025 0
    endloop
  endfacet
  facet normal 0 0 -1
    outer loop
      vertex -10 33 0
      vertex 4.3812 41.6603 0
      vertex -5.09252 24.5 0
    endloop
  endfacet
  facet normal -0 0 -1
    outer loop
      vertex 4.3812 41.6603 0
      vertex -10 33 0
      vertex -5 41.6603 0
    endloop
  endfacet
  facet normal 0 0 -1
    outer loop
      vertex 33.0925 24.5 0
      vertex -5.09252 24.5 0
      vertex 23.6188 41.6603 0
    endloop
  endfacet
  facet normal 0 -0 -1
    outer loop
      vertex -5.3812 8 0
      vertex -5 -8.66025 0
      vertex -10 0 0
    endloop
  endfacet
  facet normal 0 0 -1
    outer loop
      vertex -5.09252 24.5 0
      vertex -5.3812 8 0
      vertex -10 16 0
    endloop
  endfacet
  facet normal 0 -1 0
    outer loop
      vertex -5 -8.66025 0
      vertex 4.3812 -8.66025 40
      vertex -5 -8.66025 40
    endloop
  endfacet
  facet normal 0 -1 -0
    outer loop
      vertex 4.3812 -8.66025 40
      vertex -5 -8.66025 0
      vertex 4.3812 -8.66025 0
    endloop
  endfacet
  facet normal -0.866025 -0.5 0
    outer loop
      vertex -5 -8.66025 0
      vertex -10 0 40
      vertex -10 0 0
    endloop
  endfacet
  facet normal -0.866025 -0.5 0
    outer loop
      vertex -10 0 40
      vertex -5 -8.66025 0
      vertex -5 -8.66025 40
    endloop
  endfacet
  facet normal 0.866025 -0.5 0
    outer loop
      vertex -9 0 40
      vertex -4.76239 7.33975 1
      vertex -4.76239 7.33975 40
    endloop
  endfacet
  facet normal 0.866025 -0.5 0
    outer loop
      vertex -4.76239 7.33975 1
      vertex -9 0 40
      vertex -9 0 1
    endloop
  endfacet
  facet normal 0 0 1
    outer loop
      vertex 4.3812 7.33975 1
      vertex 4.1188 -7.79423 1
      vertex 8.6188 -7.62939e-07 1
    endloop
  endfacet
  facet normal 0 0 1
    outer loop
      vertex 4.3812 7.33975 1
      vertex -4.5 -7.79423 1
      vertex 4.1188 -7.79423 1
    endloop
  endfacet
  facet normal -0 0 1
    outer loop
      vertex -4.76239 7.33975 1
      vertex -4.5 -7.79423 1
      vertex 4.3812 7.33975 1
    endloop
  endfacet
  facet normal 0 0 1
    outer loop
      vertex -4.5 -7.79423 1
      vertex -4.76239 7.33975 1
      vertex -9 0 1
    endloop
  endfacet
  facet normal 0 1 -0
    outer loop
      vertex 4.1188 -7.79423 1
      vertex -4.5 -7.79423 40
      vertex 4.1188 -7.79423 40
    endloop
  endfacet
  facet normal 0 1 0
    outer loop
      vertex -4.5 -7.79423 40
      vertex 4.1188 -7.79423 1
      vertex -4.5 -7.79423 1
    endloop
  endfacet
  facet normal 0.866025 0.5 0
    outer loop
      vertex -4.5 -7.79423 40
      vertex -9 0 1
      vertex -9 0 40
    endloop
  endfacet
  facet normal 0.866025 0.5 0
    outer loop
      vertex -9 0 1
      vertex -4.5 -7.79423 40
      vertex -4.5 -7.79423 1
    endloop
  endfacet
  facet normal -0.866025 0.5 0
    outer loop
      vertex -10 16 0
      vertex -5.09252 24.5 40
      vertex -5.09252 24.5 0
    endloop
  endfacet
  facet normal -0.866025 0.5 0
    outer loop
      vertex -5.09252 24.5 40
      vertex -10 16 0
      vertex -10 16 40
    endloop
  endfacet
  facet normal 0.866025 -0.500001 0
    outer loop
      vertex 5.3812 8 40
      vertex 9.8812 15.7942 1
      vertex 9.8812 15.7942 40
    endloop
  endfacet
  facet normal 0.866025 -0.500001 0
    outer loop
      vertex 9.8812 15.7942 1
      vertex 5.3812 8 40
      vertex 5.3812 8 1
    endloop
  endfacet
  facet normal 0 -1 0
    outer loop
      vertex -4.76239 7.33975 1
      vertex 4.3812 7.33975 40
      vertex -4.76239 7.33975 40
    endloop
  endfacet
  facet normal 0 -1 -0
    outer loop
      vertex 4.3812 7.33975 40
      vertex -4.76239 7.33975 1
      vertex 4.3812 7.33975 1
    endloop
  endfacet
  facet normal -0.866026 -0.5 0
    outer loop
      vertex -5.3812 8 0
      vertex -10 16 40
      vertex -10 16 0
    endloop
  endfacet
  facet normal -0.866026 -0.5 0
    outer loop
      vertex -10 16 40
      vertex -5.3812 8 0
      vertex -5.3812 8 40
    endloop
  endfacet
  facet normal -0.866025 -0.5 0
    outer loop
      vertex 8.8094 16.3301 1
      vertex 4.5 23.7942 40
      vertex 4.5 23.7942 1
    endloop
  endfacet
  facet normal -0.866025 -0.5 0
    outer loop
      vertex 4.5 23.7942 40
      vertex 8.8094 16.3301 1
      vertex 8.8094 16.3301 40
    endloop
  endfacet
  facet normal 0.866025 -0.500001 0
    outer loop
      vertex -9 16 40
      vertex -4.5 23.7942 1
      vertex -4.5 23.7942 40
    endloop
  endfacet
  facet normal 0.866025 -0.500001 0
    outer loop
      vertex -4.5 23.7942 1
      vertex -9 16 40
      vertex -9 16 1
    endloop
  endfacet
  facet normal 0 -1 0
    outer loop
      vertex -4.5 23.7942 1
      vertex 4.5 23.7942 40
      vertex -4.5 23.7942 40
    endloop
  endfacet
  facet normal 0 -1 -0
    outer loop
      vertex 4.5 23.7942 40
      vertex -4.5 23.7942 1
      vertex 4.5 23.7942 1
    endloop
  endfacet
  facet normal 0 0 1
    outer loop
      vertex 4.5 23.7942 1
      vertex 4.3812 8.66025 1
      vertex 8.8094 16.3301 1
    endloop
  endfacet
  facet normal -0 0 1
    outer loop
      vertex -4.5 23.7942 1
      vertex 4.3812 8.66025 1
      vertex 4.5 23.7942 1
    endloop
  endfacet
  facet normal 0 0 1
    outer loop
      vertex -4.5 23.7942 1
      vertex -4.7624 8.66025 1
      vertex 4.3812 8.66025 1
    endloop
  endfacet
  facet normal 0 -0 1
    outer loop
      vertex -4.7624 8.66025 1
      vertex -4.5 23.7942 1
      vertex -9 16 1
    endloop
  endfacet
  facet normal 0.866026 0.499999 0
    outer loop
      vertex -4.7624 8.66025 40
      vertex -9 16 1
      vertex -9 16 40
    endloop
  endfacet
  facet normal 0.866026 0.499999 0
    outer loop
      vertex -9 16 1
      vertex -4.7624 8.66025 40
      vertex -4.7624 8.66025 1
    endloop
  endfacet
  facet normal 0.866024 0.500003 0
    outer loop
      vertex 9.6188 33.6603 40
      vertex 5.1906 41.3301 1
      vertex 5.1906 41.3301 40
    endloop
  endfacet
  facet normal 0.866024 0.500003 0
    outer loop
      vertex 5.1906 41.3301 1
      vertex 9.6188 33.6603 40
      vertex 9.6188 33.6603 1
    endloop
  endfacet
  facet normal -0.866027 0.499998 0
    outer loop
      vertex -10 33 0
      vertex -5 41.6603 40
      vertex -5 41.6603 0
    endloop
  endfacet
  facet normal -0.866027 0.499998 0
    outer loop
      vertex -5 41.6603 40
      vertex -10 33 0
      vertex -10 33 40
    endloop
  endfacet
  facet normal 0 1 -0
    outer loop
      vertex 4.3812 41.6603 0
      vertex -5 41.6603 40
      vertex 4.3812 41.6603 40
    endloop
  endfacet
  facet normal 0 1 0
    outer loop
      vertex -5 41.6603 40
      vertex 4.3812 41.6603 0
      vertex -5 41.6603 0
    endloop
  endfacet
  facet normal 0.866024 -0.500003 0
    outer loop
      vertex 5.1906 24.6699 40
      vertex 9.6188 32.3397 1
      vertex 9.6188 32.3397 40
    endloop
  endfacet
  facet normal 0.866024 -0.500003 0
    outer loop
      vertex 9.6188 32.3397 1
      vertex 5.1906 24.6699 40
      vertex 5.1906 24.6699 1
    endloop
  endfacet
  facet normal -0.866025 -0.5 0
    outer loop
      vertex -5.09252 24.5 0
      vertex -10 33 40
      vertex -10 33 0
    endloop
  endfacet
  facet normal -0.866025 -0.5 0
    outer loop
      vertex -10 33 40
      vertex -5.09252 24.5 0
      vertex -5.09252 24.5 40
    endloop
  endfacet
  facet normal 0.866025 -0.500001 0
    outer loop
      vertex -9 33 40
      vertex -4.5 40.7942 1
      vertex -4.5 40.7942 40
    endloop
  endfacet
  facet normal 0.866025 -0.500001 0
    outer loop
      vertex -4.5 40.7942 1
      vertex -9 33 40
      vertex -9 33 1
    endloop
  endfacet
  facet normal 0 -1 0
    outer loop
      vertex -4.5 40.7942 1
      vertex 4.1188 40.7942 40
      vertex -4.5 40.7942 40
    endloop
  endfacet
  facet normal 0 -1 -0
    outer loop
      vertex 4.1188 40.7942 40
      vertex -4.5 40.7942 1
      vertex 4.1188 40.7942 1
    endloop
  endfacet
  facet normal 0 0 1
    outer loop
      vertex -9 33 1
      vertex 8.6188 33 1
      vertex 4.1188 40.7942 1
    endloop
  endfacet
  facet normal 0 0 1
    outer loop
      vertex -9 33 1
      vertex 4.1188 40.7942 1
      vertex -4.5 40.7942 1
    endloop
  endfacet
  facet normal 0 0 1
    outer loop
      vertex 8.6188 33 1
      vertex -9 33 1
      vertex 4.1188 25.2058 1
    endloop
  endfacet
  facet normal 0 0 1
    outer loop
      vertex 4.1188 25.2058 1
      vertex -9 33 1
      vertex -4.5 25.2058 1
    endloop
  endfacet
  facet normal 0 1 -0
    outer loop
      vertex 4.1188 25.2058 1
      vertex -4.5 25.2058 40
      vertex 4.1188 25.2058 40
    endloop
  endfacet
  facet normal 0 1 0
    outer loop
      vertex -4.5 25.2058 40
      vertex 4.1188 25.2058 1
      vertex -4.5 25.2058 1
    endloop
  endfacet
  facet normal 0.866025 0.500001 0
    outer loop
      vertex -4.5 25.2058 40
      vertex -9 33 1
      vertex -9 33 40
    endloop
  endfacet
  facet normal 0.866025 0.500001 0
    outer loop
      vertex -9 33 1
      vertex -4.5 25.2058 40
      vertex -4.5 25.2058 1
    endloop
  endfacet
  facet normal 0.866025 0.5 0
    outer loop
      vertex 23.8812 -7.79423 40
      vertex 19.3812 0 1
      vertex 19.3812 0 40
    endloop
  endfacet
  facet normal 0.866025 0.5 0
    outer loop
      vertex 19.3812 0 1
      vertex 23.8812 -7.79423 40
      vertex 23.8812 -7.79423 1
    endloop
  endfacet
  facet normal -0.866025 0.5 0
    outer loop
      vertex 4.1188 -7.79423 1
      vertex 8.6188 -7.62939e-07 40
      vertex 8.6188 -7.62939e-07 1
    endloop
  endfacet
  facet normal -0.866025 0.5 0
    outer loop
      vertex 8.6188 -7.62939e-07 40
      vertex 4.1188 -7.79423 1
      vertex 4.1188 -7.79423 40
    endloop
  endfacet
  facet normal 0 1 -0
    outer loop
      vertex 18.3812 0.660254 1
      vertex 9.6188 0.660254 40
      vertex 18.3812 0.660254 40
    endloop
  endfacet
  facet normal 0 1 0
    outer loop
      vertex 9.6188 0.660254 40
      vertex 18.3812 0.660254 1
      vertex 9.6188 0.660254 1
    endloop
  endfacet
  facet normal 0.866027 -0.499997 0
    outer loop
      vertex 19 -16.6603 40
      vertex 23.6188 -8.66025 0
      vertex 23.6188 -8.66025 40
    endloop
  endfacet
  facet normal 0.866027 -0.499997 0
    outer loop
      vertex 23.6188 -8.66025 0
      vertex 19 -16.6603 40
      vertex 19 -16.6603 0
    endloop
  endfacet
  facet normal 0 -1 0
    outer loop
      vertex 9 -16.6603 0
      vertex 19 -16.6603 40
      vertex 9 -16.6603 40
    endloop
  endfacet
  facet normal 0 -1 -0
    outer loop
      vertex 19 -16.6603 40
      vertex 9 -16.6603 0
      vertex 19 -16.6603 0
    endloop
  endfacet
  facet normal -0.866027 -0.499997 0
    outer loop
      vertex 9 -16.6603 0
      vertex 4.3812 -8.66025 40
      vertex 4.3812 -8.66025 0
    endloop
  endfacet
  facet normal -0.866027 -0.499997 0
    outer loop
      vertex 4.3812 -8.66025 40
      vertex 9 -16.6603 0
      vertex 9 -16.6603 40
    endloop
  endfacet
  facet normal -0.866025 0.500001 0
    outer loop
      vertex 18.5 -15.7942 1
      vertex 22.8094 -8.33013 40
      vertex 22.8094 -8.33013 1
    endloop
  endfacet
  facet normal -0.866025 0.500001 0
    outer loop
      vertex 22.8094 -8.33013 40
      vertex 18.5 -15.7942 1
      vertex 18.5 -15.7942 40
    endloop
  endfacet
  facet normal 0 0 1
    outer loop
      vertex 18.3812 -0.660254 1
      vertex 18.5 -15.7942 1
      vertex 22.8094 -8.33013 1
    endloop
  endfacet
  facet normal -0 0 1
    outer loop
      vertex 9.6188 -0.660254 1
      vertex 18.5 -15.7942 1
      vertex 18.3812 -0.660254 1
    endloop
  endfacet
  facet normal 0 0 1
    outer loop
      vertex 9.6188 -0.660254 1
      vertex 9.5 -15.7942 1
      vertex 18.5 -15.7942 1
    endloop
  endfacet
  facet normal 0 -0 1
    outer loop
      vertex 9.5 -15.7942 1
      vertex 9.6188 -0.660254 1
      vertex 5.1906 -8.33013 1
    endloop
  endfacet
  facet normal 0 1 -0
    outer loop
      vertex 18.5 -15.7942 1
      vertex 9.5 -15.7942 40
      vertex 18.5 -15.7942 40
    endloop
  endfacet
  facet normal 0 1 0
    outer loop
      vertex 9.5 -15.7942 40
      vertex 18.5 -15.7942 1
      vertex 9.5 -15.7942 1
    endloop
  endfacet
  facet normal 0.866025 0.500001 0
    outer loop
      vertex 9.5 -15.7942 40
      vertex 5.1906 -8.33013 1
      vertex 5.1906 -8.33013 40
    endloop
  endfacet
  facet normal 0.866025 0.500001 0
    outer loop
      vertex 5.1906 -8.33013 1
      vertex 9.5 -15.7942 40
      vertex 9.5 -15.7942 1
    endloop
  endfacet
  facet normal 0.866025 0.500001 0
    outer loop
      vertex 23.6188 8.66025 40
      vertex 19.1906 16.3301 1
      vertex 19.1906 16.3301 40
    endloop
  endfacet
  facet normal 0.866025 0.500001 0
    outer loop
      vertex 19.1906 16.3301 1
      vertex 23.6188 8.66025 40
      vertex 23.6188 8.66025 1
    endloop
  endfacet
  facet normal -0.866025 0.500001 0
    outer loop
      vertex 4.3812 8.66025 1
      vertex 8.8094 16.3301 40
      vertex 8.8094 16.3301 1
    endloop
  endfacet
  facet normal -0.866025 0.500001 0
    outer loop
      vertex 8.8094 16.3301 40
      vertex 4.3812 8.66025 1
      vertex 4.3812 8.66025 40
    endloop
  endfacet
  facet normal 0.866026 -0.499999 0
    outer loop
      vertex 19.3812 0 40
      vertex 23.6188 7.33975 1
      vertex 23.6188 7.33975 40
    endloop
  endfacet
  facet normal 0.866026 -0.499999 0
    outer loop
      vertex 23.6188 7.33975 1
      vertex 19.3812 0 40
      vertex 19.3812 0 1
    endloop
  endfacet
  facet normal 0 -1 0
    outer loop
      vertex 9.6188 -0.660254 1
      vertex 18.3812 -0.660254 40
      vertex 9.6188 -0.660254 40
    endloop
  endfacet
  facet normal 0 -1 -0
    outer loop
      vertex 18.3812 -0.660254 40
      vertex 9.6188 -0.660254 1
      vertex 18.3812 -0.660254 1
    endloop
  endfacet
  facet normal -0.866026 -0.499999 0
    outer loop
      vertex 8.6188 -7.62939e-07 1
      vertex 4.3812 7.33975 40
      vertex 4.3812 7.33975 1
    endloop
  endfacet
  facet normal -0.866026 -0.499999 0
    outer loop
      vertex 4.3812 7.33975 40
      vertex 8.6188 -7.62939e-07 1
      vertex 8.6188 -7.62939e-07 40
    endloop
  endfacet
  facet normal 0 -1 0
    outer loop
      vertex 9.8812 15.7942 1
      vertex 18.1188 15.7942 40
      vertex 9.8812 15.7942 40
    endloop
  endfacet
  facet normal 0 -1 -0
    outer loop
      vertex 18.1188 15.7942 40
      vertex 9.8812 15.7942 1
      vertex 18.1188 15.7942 1
    endloop
  endfacet
  facet normal -0 0 1
    outer loop
      vertex 9.8812 15.7942 1
      vertex 22.6188 8 1
      vertex 18.1188 15.7942 1
    endloop
  endfacet
  facet normal 0 0 1
    outer loop
      vertex 5.3812 8 1
      vertex 22.6188 8 1
      vertex 9.8812 15.7942 1
    endloop
  endfacet
  facet normal 0 0 1
    outer loop
      vertex 22.6188 8 1
      vertex 5.3812 8 1
      vertex 18.3812 0.660254 1
    endloop
  endfacet
  facet normal 0 0 1
    outer loop
      vertex 18.3812 0.660254 1
      vertex 5.3812 8 1
      vertex 9.6188 0.660254 1
    endloop
  endfacet
  facet normal 0.866025 0.500001 0
    outer loop
      vertex 23.8812 25.2058 40
      vertex 19.3812 33 1
      vertex 19.3812 33 40
    endloop
  endfacet
  facet normal 0.866025 0.500001 0
    outer loop
      vertex 19.3812 33 1
      vertex 23.8812 25.2058 40
      vertex 23.8812 25.2058 1
    endloop
  endfacet
  facet normal -0.866025 0.500001 0
    outer loop
      vertex 4.1188 25.2058 1
      vertex 8.6188 33 40
      vertex 8.6188 33 1
    endloop
  endfacet
  facet normal -0.866025 0.500001 0
    outer loop
      vertex 8.6188 33 40
      vertex 4.1188 25.2058 1
      vertex 4.1188 25.2058 40
    endloop
  endfacet
  facet normal 0 1 -0
    outer loop
      vertex 18.3812 33.6603 1
      vertex 9.6188 33.6603 40
      vertex 18.3812 33.6603 40
    endloop
  endfacet
  facet normal 0 1 0
    outer loop
      vertex 9.6188 33.6603 40
      vertex 18.3812 33.6603 1
      vertex 9.6188 33.6603 1
    endloop
  endfacet
  facet normal -0.866025 0.5 0
    outer loop
      vertex 18.5 17.2058 1
      vertex 22.8094 24.6699 40
      vertex 22.8094 24.6699 1
    endloop
  endfacet
  facet normal -0.866025 0.5 0
    outer loop
      vertex 22.8094 24.6699 40
      vertex 18.5 17.2058 1
      vertex 18.5 17.2058 40
    endloop
  endfacet
  facet normal 0 0 1
    outer loop
      vertex 18.3812 32.3397 1
      vertex 18.5 17.2058 1
      vertex 22.8094 24.6699 1
    endloop
  endfacet
  facet normal -0 0 1
    outer loop
      vertex 9.6188 32.3397 1
      vertex 18.5 17.2058 1
      vertex 18.3812 32.3397 1
    endloop
  endfacet
  facet normal 0 0 1
    outer loop
      vertex 9.6188 32.3397 1
      vertex 9.5 17.2058 1
      vertex 18.5 17.2058 1
    endloop
  endfacet
  facet normal 0 -0 1
    outer loop
      vertex 9.5 17.2058 1
      vertex 9.6188 32.3397 1
      vertex 5.1906 24.6699 1
    endloop
  endfacet
  facet normal 0 1 -0
    outer loop
      vertex 18.5 17.2058 1
      vertex 9.5 17.2058 40
      vertex 18.5 17.2058 40
    endloop
  endfacet
  facet normal 0 1 0
    outer loop
      vertex 9.5 17.2058 40
      vertex 18.5 17.2058 1
      vertex 9.5 17.2058 1
    endloop
  endfacet
  facet normal 0.866025 0.5 0
    outer loop
      vertex 9.5 17.2058 40
      vertex 5.1906 24.6699 1
      vertex 5.1906 24.6699 40
    endloop
  endfacet
  facet normal 0.866025 0.5 0
    outer loop
      vertex 5.1906 24.6699 1
      vertex 9.5 17.2058 40
      vertex 9.5 17.2058 1
    endloop
  endfacet
  facet normal 0.866026 0.5 0
    outer loop
      vertex 23.6188 41.6603 40
      vertex 19 49.6603 0
      vertex 19 49.6603 40
    endloop
  endfacet
  facet normal 0.866026 0.5 0
    outer loop
      vertex 19 49.6603 0
      vertex 23.6188 41.6603 40
      vertex 23.6188 41.6603 0
    endloop
  endfacet
  facet normal -0.866026 0.5 0
    outer loop
      vertex 4.3812 41.6603 0
      vertex 9 49.6603 40
      vertex 9 49.6603 0
    endloop
  endfacet
  facet normal -0.866026 0.5 0
    outer loop
      vertex 9 49.6603 40
      vertex 4.3812 41.6603 0
      vertex 4.3812 41.6603 40
    endloop
  endfacet
  facet normal 0 1 -0
    outer loop
      vertex 19 49.6603 0
      vertex 9 49.6603 40
      vertex 19 49.6603 40
    endloop
  endfacet
  facet normal 0 1 0
    outer loop
      vertex 9 49.6603 40
      vertex 19 49.6603 0
      vertex 9 49.6603 0
    endloop
  endfacet
  facet normal 0.866025 -0.500001 0
    outer loop
      vertex 19.3812 33 40
      vertex 23.8812 40.7942 1
      vertex 23.8812 40.7942 40
    endloop
  endfacet
  facet normal 0.866025 -0.500001 0
    outer loop
      vertex 23.8812 40.7942 1
      vertex 19.3812 33 40
      vertex 19.3812 33 1
    endloop
  endfacet
  facet normal 0 -1 0
    outer loop
      vertex 9.6188 32.3397 1
      vertex 18.3812 32.3397 40
      vertex 9.6188 32.3397 40
    endloop
  endfacet
  facet normal 0 -1 -0
    outer loop
      vertex 18.3812 32.3397 40
      vertex 9.6188 32.3397 1
      vertex 18.3812 32.3397 1
    endloop
  endfacet
  facet normal -0.866025 -0.500001 0
    outer loop
      vertex 8.6188 33 1
      vertex 4.1188 40.7942 40
      vertex 4.1188 40.7942 1
    endloop
  endfacet
  facet normal -0.866025 -0.500001 0
    outer loop
      vertex 4.1188 40.7942 40
      vertex 8.6188 33 1
      vertex 8.6188 33 40
    endloop
  endfacet
  facet normal -0.866025 -0.5 0
    outer loop
      vertex 22.8094 41.3301 1
      vertex 18.5 48.7942 40
      vertex 18.5 48.7942 1
    endloop
  endfacet
  facet normal -0.866025 -0.5 0
    outer loop
      vertex 18.5 48.7942 40
      vertex 22.8094 41.3301 1
      vertex 22.8094 41.3301 40
    endloop
  endfacet
  facet normal 0.866025 -0.5 0
    outer loop
      vertex 5.1906 41.3301 40
      vertex 9.5 48.7942 1
      vertex 9.5 48.7942 40
    endloop
  endfacet
  facet normal 0.866025 -0.5 0
    outer loop
      vertex 9.5 48.7942 1
      vertex 5.1906 41.3301 40
      vertex 5.1906 41.3301 1
    endloop
  endfacet
  facet normal 0 -1 0
    outer loop
      vertex 9.5 48.7942 1
      vertex 18.5 48.7942 40
      vertex 9.5 48.7942 40
    endloop
  endfacet
  facet normal 0 -1 -0
    outer loop
      vertex 18.5 48.7942 40
      vertex 9.5 48.7942 1
      vertex 18.5 48.7942 1
    endloop
  endfacet
  facet normal 0 0 1
    outer loop
      vertex 18.5 48.7942 1
      vertex 18.3812 33.6603 1
      vertex 22.8094 41.3301 1
    endloop
  endfacet
  facet normal 0 0 1
    outer loop
      vertex 18.5 48.7942 1
      vertex 9.6188 33.6603 1
      vertex 18.3812 33.6603 1
    endloop
  endfacet
  facet normal -0 0 1
    outer loop
      vertex 9.5 48.7942 1
      vertex 9.6188 33.6603 1
      vertex 18.5 48.7942 1
    endloop
  endfacet
  facet normal 0 0 1
    outer loop
      vertex 9.6188 33.6603 1
      vertex 9.5 48.7942 1
      vertex 5.1906 41.3301 1
    endloop
  endfacet
  facet normal 0.866026 0.5 0
    outer loop
      vertex 38 0 40
      vertex 33.3812 8 0
      vertex 33.3812 8 40
    endloop
  endfacet
  facet normal 0.866026 0.5 0
    outer loop
      vertex 33.3812 8 0
      vertex 38 0 40
      vertex 38 0 0
    endloop
  endfacet
  facet normal -0.866026 0.5 0
    outer loop
      vertex 18.3812 0.660254 1
      vertex 22.6188 8 40
      vertex 22.6188 8 1
    endloop
  endfacet
  facet normal -0.866026 0.5 0
    outer loop
      vertex 22.6188 8 40
      vertex 18.3812 0.660254 1
      vertex 18.3812 0.660254 40
    endloop
  endfacet
  facet normal 0 1 -0
    outer loop
      vertex 32.7624 8.66025 1
      vertex 23.6188 8.66025 40
      vertex 32.7624 8.66025 40
    endloop
  endfacet
  facet normal 0 1 0
    outer loop
      vertex 23.6188 8.66025 40
      vertex 32.7624 8.66025 1
      vertex 23.6188 8.66025 1
    endloop
  endfacet
  facet normal 0.866025 -0.5 0
    outer loop
      vertex 33 -8.66025 40
      vertex 38 0 0
      vertex 38 0 40
    endloop
  endfacet
  facet normal 0.866025 -0.5 0
    outer loop
      vertex 38 0 0
      vertex 33 -8.66025 40
      vertex 33 -8.66025 0
    endloop
  endfacet
  facet normal 0 -1 0
    outer loop
      vertex 23.6188 -8.66025 0
      vertex 33 -8.66025 40
      vertex 23.6188 -8.66025 40
    endloop
  endfacet
  facet normal 0 -1 -0
    outer loop
      vertex 33 -8.66025 40
      vertex 23.6188 -8.66025 0
      vertex 33 -8.66025 0
    endloop
  endfacet
  facet normal -0.866026 -0.5 0
    outer loop
      vertex 22.8094 -8.33013 1
      vertex 18.3812 -0.660254 40
      vertex 18.3812 -0.660254 1
    endloop
  endfacet
  facet normal -0.866026 -0.5 0
    outer loop
      vertex 18.3812 -0.660254 40
      vertex 22.8094 -8.33013 1
      vertex 22.8094 -8.33013 40
    endloop
  endfacet
  facet normal -0.866026 -0.499999 0
    outer loop
      vertex 37 0 1
      vertex 32.7624 7.33975 40
      vertex 32.7624 7.33975 1
    endloop
  endfacet
  facet normal -0.866026 -0.499999 0
    outer loop
      vertex 32.7624 7.33975 40
      vertex 37 0 1
      vertex 37 0 40
    endloop
  endfacet
  facet normal -0.866025 0.5 0
    outer loop
      vertex 32.5 -7.79423 1
      vertex 37 0 40
      vertex 37 0 1
    endloop
  endfacet
  facet normal -0.866025 0.5 0
    outer loop
      vertex 37 0 40
      vertex 32.5 -7.79423 1
      vertex 32.5 -7.79423 40
    endloop
  endfacet
  facet normal 0 0 1
    outer loop
      vertex 32.7624 7.33975 1
      vertex 32.5 -7.79423 1
      vertex 37 0 1
    endloop
  endfacet
  facet normal 0 0 1
    outer loop
      vertex 32.7624 7.33975 1
      vertex 23.8812 -7.79423 1
      vertex 32.5 -7.79423 1
    endloop
  endfacet
  facet normal -0 0 1
    outer loop
      vertex 23.6188 7.33975 1
      vertex 23.8812 -7.79423 1
      vertex 32.7624 7.33975 1
    endloop
  endfacet
  facet normal 0 0 1
    outer loop
      vertex 23.8812 -7.79423 1
      vertex 23.6188 7.33975 1
      vertex 19.3812 0 1
    endloop
  endfacet
  facet normal 0 1 -0
    outer loop
      vertex 32.5 -7.79423 1
      vertex 23.8812 -7.79423 40
      vertex 32.5 -7.79423 40
    endloop
  endfacet
  facet normal 0 1 0
    outer loop
      vertex 23.8812 -7.79423 40
      vertex 32.5 -7.79423 1
      vertex 23.8812 -7.79423 1
    endloop
  endfacet
  facet normal 0.866024 0.500002 0
    outer loop
      vertex 38 16 40
      vertex 33.0925 24.5 0
      vertex 33.0925 24.5 40
    endloop
  endfacet
  facet normal 0.866024 0.500002 0
    outer loop
      vertex 33.0925 24.5 0
      vertex 38 16 40
      vertex 38 16 0
    endloop
  endfacet
  facet normal 0.866026 -0.5 0
    outer loop
      vertex 33.3812 8 40
      vertex 38 16 0
      vertex 38 16 40
    endloop
  endfacet
  facet normal 0.866026 -0.5 0
    outer loop
      vertex 38 16 0
      vertex 33.3812 8 40
      vertex 33.3812 8 0
    endloop
  endfacet
  facet normal 0 -1 0
    outer loop
      vertex 23.6188 7.33975 1
      vertex 32.7624 7.33975 40
      vertex 23.6188 7.33975 40
    endloop
  endfacet
  facet normal 0 -1 -0
    outer loop
      vertex 32.7624 7.33975 40
      vertex 23.6188 7.33975 1
      vertex 32.7624 7.33975 1
    endloop
  endfacet
  facet normal -0.866025 -0.500001 0
    outer loop
      vertex 22.6188 8 1
      vertex 18.1188 15.7942 40
      vertex 18.1188 15.7942 1
    endloop
  endfacet
  facet normal -0.866025 -0.500001 0
    outer loop
      vertex 18.1188 15.7942 40
      vertex 22.6188 8 1
      vertex 22.6188 8 40
    endloop
  endfacet
  facet normal -0.866025 -0.500001 0
    outer loop
      vertex 37 16 1
      vertex 32.5 23.7942 40
      vertex 32.5 23.7942 1
    endloop
  endfacet
  facet normal -0.866025 -0.500001 0
    outer loop
      vertex 32.5 23.7942 40
      vertex 37 16 1
      vertex 37 16 40
    endloop
  endfacet
  facet normal 0.866025 -0.5 0
    outer loop
      vertex 19.1906 16.3301 40
      vertex 23.5 23.7942 1
      vertex 23.5 23.7942 40
    endloop
  endfacet
  facet normal 0.866025 -0.5 0
    outer loop
      vertex 23.5 23.7942 1
      vertex 19.1906 16.3301 40
      vertex 19.1906 16.3301 1
    endloop
  endfacet
  facet normal 0 -1 0
    outer loop
      vertex 23.5 23.7942 1
      vertex 32.5 23.7942 40
      vertex 23.5 23.7942 40
    endloop
  endfacet
  facet normal 0 -1 -0
    outer loop
      vertex 32.5 23.7942 40
      vertex 23.5 23.7942 1
      vertex 32.5 23.7942 1
    endloop
  endfacet
  facet normal -0.866026 0.499999 0
    outer loop
      vertex 32.7624 8.66025 1
      vertex 37 16 40
      vertex 37 16 1
    endloop
  endfacet
  facet normal -0.866026 0.499999 0
    outer loop
      vertex 37 16 40
      vertex 32.7624 8.66025 1
      vertex 32.7624 8.66025 40
    endloop
  endfacet
  facet normal 0 0 1
    outer loop
      vertex 32.5 23.7942 1
      vertex 32.7624 8.66025 1
      vertex 37 16 1
    endloop
  endfacet
  facet normal 0 0 1
    outer loop
      vertex 32.5 23.7942 1
      vertex 23.6188 8.66025 1
      vertex 32.7624 8.66025 1
    endloop
  endfacet
  facet normal -0 0 1
    outer loop
      vertex 23.5 23.7942 1
      vertex 23.6188 8.66025 1
      vertex 32.5 23.7942 1
    endloop
  endfacet
  facet normal 0 0 1
    outer loop
      vertex 23.6188 8.66025 1
      vertex 23.5 23.7942 1
      vertex 19.1906 16.3301 1
    endloop
  endfacet
  facet normal 0.866027 0.499998 0
    outer loop
      vertex 38 33 40
      vertex 33 41.6603 0
      vertex 33 41.6603 40
    endloop
  endfacet
  facet normal 0.866027 0.499998 0
    outer loop
      vertex 33 41.6603 0
      vertex 38 33 40
      vertex 38 33 0
    endloop
  endfacet
  facet normal -0.866024 0.500003 0
    outer loop
      vertex 18.3812 33.6603 1
      vertex 22.8094 41.3301 40
      vertex 22.8094 41.3301 1
    endloop
  endfacet
  facet normal -0.866024 0.500003 0
    outer loop
      vertex 22.8094 41.3301 40
      vertex 18.3812 33.6603 1
      vertex 18.3812 33.6603 40
    endloop
  endfacet
  facet normal 0 1 -0
    outer loop
      vertex 33 41.6603 0
      vertex 23.6188 41.6603 40
      vertex 33 41.6603 40
    endloop
  endfacet
  facet normal 0 1 0
    outer loop
      vertex 23.6188 41.6603 40
      vertex 33 41.6603 0
      vertex 23.6188 41.6603 0
    endloop
  endfacet
  facet normal 0.866024 -0.500002 0
    outer loop
      vertex 33.0925 24.5 40
      vertex 38 33 0
      vertex 38 33 40
    endloop
  endfacet
  facet normal 0.866024 -0.500002 0
    outer loop
      vertex 38 33 0
      vertex 33.0925 24.5 40
      vertex 33.0925 24.5 0
    endloop
  endfacet
  facet normal -0.866024 -0.500003 0
    outer loop
      vertex 22.8094 24.6699 1
      vertex 18.3812 32.3397 40
      vertex 18.3812 32.3397 1
    endloop
  endfacet
  facet normal -0.866024 -0.500003 0
    outer loop
      vertex 18.3812 32.3397 40
      vertex 22.8094 24.6699 1
      vertex 22.8094 24.6699 40
    endloop
  endfacet
  facet normal -0.866025 -0.500001 0
    outer loop
      vertex 37 33 1
      vertex 32.5 40.7942 40
      vertex 32.5 40.7942 1
    endloop
  endfacet
  facet normal -0.866025 -0.500001 0
    outer loop
      vertex 32.5 40.7942 40
      vertex 37 33 1
      vertex 37 33 40
    endloop
  endfacet
  facet normal 0 -1 0
    outer loop
      vertex 23.8812 40.7942 1
      vertex 32.5 40.7942 40
      vertex 23.8812 40.7942 40
    endloop
  endfacet
  facet normal 0 -1 -0
    outer loop
      vertex 32.5 40.7942 40
      vertex 23.8812 40.7942 1
      vertex 32.5 40.7942 1
    endloop
  endfacet
  facet normal -0.866025 0.500001 0
    outer loop
      vertex 32.5 25.2058 1
      vertex 37 33 40
      vertex 37 33 1
    endloop
  endfacet
  facet normal -0.866025 0.500001 0
    outer loop
      vertex 37 33 40
      vertex 32.5 25.2058 1
      vertex 32.5 25.2058 40
    endloop
  endfacet
  facet normal 0 0 1
    outer loop
      vertex 19.3812 33 1
      vertex 37 33 1
      vertex 32.5 40.7942 1
    endloop
  endfacet
  facet normal 0 0 1
    outer loop
      vertex 19.3812 33 1
      vertex 32.5 40.7942 1
      vertex 23.8812 40.7942 1
    endloop
  endfacet
  facet normal 0 0 1
    outer loop
      vertex 37 33 1
      vertex 19.3812 33 1
      vertex 32.5 25.2058 1
    endloop
  endfacet
  facet normal 0 0 1
    outer loop
      vertex 32.5 25.2058 1
      vertex 19.3812 33 1
      vertex 23.8812 25.2058 1
    endloop
  endfacet
  facet normal 0 1 -0
    outer loop
      vertex 32.5 25.2058 1
      vertex 23.8812 25.2058 40
      vertex 32.5 25.2058 40
    endloop
  endfacet
  facet normal 0 1 0
    outer loop
      vertex 23.8812 25.2058 40
      vertex 32.5 25.2058 1
      vertex 23.8812 25.2058 1
    endloop
  endfacet
endsolid OpenSCAD_Model
